<svg xmlns="http://www.w3.org/2000/svg" version="1.1" xmlns:xlink="http://www.w3.org/1999/xlink" viewBox="0 0 200 200"><rect width="200" height="200" fill="url('#gradient')"></rect><defs><linearGradient id="gradient" gradientTransform="rotate(360 0.5 0.5)"><stop offset="0%" stop-color="#dadde1"></stop><stop offset="100%" stop-color="#8e929a"></stop></linearGradient></defs><g><g fill="#101828" transform="matrix(7.323003575685339,0,0,7.323003575685339,2.1604143258925745,152.07081106479177)" stroke="#0b44cd" stroke-width="0.15"><path d="M8.87 0L6.36-5.02L4.50-5.02L4.50 0L1.07 0L1.07-14.22L6.67-14.22Q9.20-14.22 10.63-13.10Q12.05-11.97 12.05-9.92L12.05-9.92Q12.05-8.44 11.45-7.46Q10.85-6.48 9.57-5.88L9.57-5.88L12.54-0.15L12.54 0L8.87 0ZM4.50-11.57L4.50-7.67L6.67-7.67Q7.65-7.67 8.14-8.18Q8.63-8.69 8.63-9.61Q8.63-10.53 8.13-11.05Q7.64-11.57 6.67-11.57L6.67-11.57L4.50-11.57ZM22.22-4.81L25.63-4.81Q25.56-3.33 24.82-2.19Q24.09-1.05 22.77-0.43Q21.45 0.20 19.75 0.20L19.75 0.20Q16.94 0.20 15.33-1.63Q13.72-3.46 13.72-6.79L13.72-6.79L13.72-7.49Q13.72-9.58 14.45-11.15Q15.18-12.71 16.54-13.57Q17.91-14.42 19.71-14.42L19.71-14.42Q22.29-14.42 23.87-13.06Q25.44-11.70 25.65-9.31L25.65-9.31L22.24-9.31Q22.20-10.61 21.58-11.17Q20.97-11.74 19.71-11.74L19.71-11.74Q18.43-11.74 17.83-10.78Q17.24-9.82 17.21-7.72L17.21-7.72L17.21-6.72Q17.21-4.44 17.78-3.47Q18.35-2.49 19.75-2.49L19.75-2.49Q20.93-2.49 21.55-3.05Q22.18-3.60 22.22-4.81L22.22-4.81Z"></path></g></g></svg>